:FULLY-SPECIFIED
:FORCE-ALL-JOINTS-BE-3DOF
:DEGREES
227
root 8.68082 16.1695 -5.28252 10.2139 -4.0404 -7.69885
lfemur -48.3741 6.02713 -13.058
ltibia 28.4913 -0 0
lfoot -5.94885 11.8364 -0.0142864
ltoes -13.1624 0 0
rfemur 17.7295 7.20556 31.3327
rtibia -3.18053e-15 0 0
rfoot -10.692 7.76401 0.0045041
rtoes -12.8277 0 0
lowerback -8.91123 2.93528 4.10297
upperback -1.51092 3.36825 3.82251
thorax 3.42535 1.70045 2.06322
lowerneck -16.1973 -5.93666 -13.8126
upperneck 15.36 -7.66925 14.9533
head 8.59636 -3.06302 6.44508
lclavicle 9.05297e-15 -1.86858e-14 0
lhumerus -51.5858 -7.65025 93.4808
lradius 23.6392 -0 0
lwrist 1.45876 0 0
lhand -8.9078 -24.4607 -0.0282599
lfingers 7.12502 0 0
lthumb 17.0357 4.8186 -0.025932
rclavicle 9.05297e-15 -1.86858e-14 0
rhumerus -40.7015 13.627 -86.9938
rradius 51.392 -0 0
rwrist -24.9528 0 0
rhand -32.2628 -31.8108 0.000572985
rfingers 7.12502 0 0
rthumb -5.50245 -61.7211 0.000663563
228
root 8.70698 16.153 -5.10848 10.435 -4.17848 -7.71209
lfemur -48.9451 6.80789 -13.6088
ltibia 29.8119 -0 0
lfoot -3.70091 11.5392 -0.0092196
ltoes -13.8126 0 0
rfemur 18.1291 7.21122 31.1516
rtibia -7.95137e-15 0 0
rfoot -10.1519 7.8049 0.00318516
rtoes -13.1284 0 0
lowerback -9.05114 2.93925 4.10682
upperback -1.59892 3.37006 3.75015
thorax 3.41611 1.7011 1.99076
lowerneck -16.3217 -5.92756 -13.7801
upperneck 15.4072 -7.66719 15.0137
head 8.63606 -3.04943 6.46221
lclavicle 1.73729e-14 -1.37161e-14 0
lhumerus -51.6774 -7.62768 93.4038
lradius 23.62 -0 0
lwrist 2.07992 0 0
lhand -8.94085 -24.2925 -0.00844521
lfingers 7.12502 0 0
lthumb 17.0036 4.98556 -0.00765767
rclavicle 1.73729e-14 -1.37161e-14 0
rhumerus -40.9902 13.4756 -87.2273
rradius 51.0935 -0 0
rwrist -24.8164 0 0
rhand -32.2372 -31.9064 0.000425801
rfingers 7.12502 0 0
rthumb -5.47779 -61.8169 0.000497309
229
root 8.73313 16.1365 -4.93444 10.5977 -4.27223 -7.66441
lfemur -49.4055 7.42885 -14.1467
ltibia 31.1055 0 0
lfoot -2.06214 11.1303 0
ltoes -13.8593 0 0
rfemur 18.572 7.15394 30.9132
rtibia -1.27222e-14 0 0
rfoot -9.51988 7.79964 0
rtoes -13.5111 0 0
lowerback -9.14861 2.91597 4.04785
upperback -1.68464 3.34458 3.67824
thorax 3.38246 1.68759 1.94825
lowerneck -16.43 -5.92104 -13.7637
upperneck 15.4611 -7.66484 15.0611
head 8.67503 -3.03845 6.47781
lclavicle 2.56929e-14 -8.74653e-15 0
lhumerus -51.7119 -7.55329 93.2552
lradius 23.5084 0 0
lwrist 2.33574 0 0
lhand -8.83987 -24.1214 0
lfingers 7.12502 0 0
lthumb 17.1006 5.14601 0
rclavicle 2.56929e-14 -8.74653e-15 0
rhumerus -41.3402 13.2889 -87.421
rradius 50.8185 0 0
rwrist -24.6632 0 0
rhand -32.0752 -31.9954 0
rfingers 7.12502 0 0
rthumb -5.32131 -61.9086 0
230
root 8.76314 16.1288 -4.75008 10.702 -4.30478 -7.54544
lfemur -49.7826 7.87014 -14.6686
ltibia 32.4362 -0 0
lfoot -1.04002 10.5727 0.00617797
ltoes -13.2027 0 0
rfemur 19.106 7.01749 30.606
rtibia -2.17338e-14 0 0
rfoot -8.8072 7.76014 6.96135e-05
rtoes -14.0249 0 0
lowerback -9.2167 2.8574 3.9149
upperback -1.77231 3.2819 3.60512
thorax 3.32672 1.65482 1.93917
lowerneck -16.5017 -5.9157 -13.7687
upperneck 15.5128 -7.66092 15.0979
head 8.70658 -3.03048 6.49369
lclavicle 2.25786e-14 -6.36111e-15 0
lhumerus -51.7055 -7.42473 93.0313
lradius 23.2902 -0 0
lwrist 2.21444 0 0
lhand -8.58642 -23.9949 -0.00139386
lfingers 7.12502 0 0
lthumb 17.3445 5.25038 -0.00155235
rclavicle 2.25786e-14 -6.36111e-15 0
rhumerus -41.7886 13.0538 -87.5707
rradius 50.6011 -0 0
rwrist -24.4688 0 0
rhand -31.6809 -32.1809 -0.000747854
rfingers 7.12502 0 0
rthumb -4.94054 -62.1008 -0.000887138
231
root 8.79316 16.1211 -4.56572 10.7689 -4.28017 -7.36563
lfemur -50.1292 8.17458 -15.1888
ltibia 33.8526 -0 0
lfoot -0.390399 9.89815 0.00593725
ltoes -12.0842 0 0
rfemur 19.7245 6.81386 30.2357
rtibia -3.07453e-14 0 0
rfoot -8.02563 7.69832 0.00533655
rtoes -14.663 0 0
lowerback -9.2733 2.7693 3.72303
upperback -1.86474 3.18733 3.52642
thorax 3.25692 1.60561 1.95206
lowerneck -16.5385 -5.91183 -13.7941
upperneck 15.5543 -7.65684 15.1332
head 8.72905 -3.02527 6.51259
lclavicle 1.94643e-14 -3.9757e-15 0
lhumerus -51.6791 -7.2666 92.7622
lradius 22.9974 -0 0
lwrist 1.87905 0 0
lhand -8.26111 -23.9819 -0.00245076
lfingers 7.12502 0 0
lthumb 17.6575 5.23479 -0.0027768
rclavicle 1.94643e-14 -3.9757e-15 0
rhumerus -42.3267 12.7684 -87.684
rradius 50.4381 -0 0
rwrist -24.2362 0 0
rhand -31.0704 -32.4729 0.000362474
rfingers 7.12502 0 0
rthumb -4.35104 -62.4032 2.24418e-05
232
root 8.82317 16.1135 -4.38137 10.8035 -4.22063 -7.14013
lfemur -50.4199 8.38035 -15.7086
ltibia 35.2868 -0 0
lfoot -0.0428727 9.16123 0.00202961
ltoes -10.6888 0 0
rfemur 20.3669 6.56832 29.8163
rtibia -3.97569e-14 0 0
rfoot -7.16411 7.60224 0.0114504
rtoes -15.3622 0 0
lowerback -9.30628 2.6631 3.48998
upperback -1.95726 3.07459 3.44326
thorax 3.17216 1.54709 1.97973
lowerneck -16.5668 -5.91132 -13.833
upperneck 15.5949 -7.65457 15.1666
head 8.7504 -3.02226 6.53292
lclavicle 1.635e-14 -1.59028e-15 0
lhumerus -51.6187 -7.0876 92.4602
lradius 22.6557 -0 0
lwrist 1.38507 0 0
lhand -7.90722 -24.0401 -0.0026606
lfingers 7.12502 0 0
lthumb 17.998 5.14524 -0.00306086
rclavicle 1.635e-14 -1.59028e-15 0
rhumerus -42.9059 12.4488 -87.7666
rradius 50.286 -0 0
rwrist -23.9967 0 0
rhand -30.3676 -32.7449 0.00481022
rfingers 7.12502 0 0
rthumb -3.67234 -62.6873 0.00426739
